<?xml version="1.0" encoding="UTF-8" standalone="no"?>
<svg
   width="40"
   height="40"
   viewBox="0 0 40 40"
   fill="none"
   version="1.1"
   id="svg882"
   sodipodi:docname="icon-logo.svg"
   inkscape:version="1.1.1 (3bf5ae0d25, 2021-09-20)"
   xmlns:inkscape="http://www.inkscape.org/namespaces/inkscape"
   xmlns:sodipodi="http://sodipodi.sourceforge.net/DTD/sodipodi-0.dtd"
   xmlns="http://www.w3.org/2000/svg"
   xmlns:svg="http://www.w3.org/2000/svg">
  <sodipodi:namedview
     id="namedview884"
     pagecolor="#505050"
     bordercolor="#eeeeee"
     borderopacity="1"
     inkscape:pageshadow="0"
     inkscape:pageopacity="0"
     inkscape:pagecheckerboard="0"
     showgrid="false"
     fit-margin-top="0"
     fit-margin-left="0"
     fit-margin-right="0"
     fit-margin-bottom="0"
     inkscape:zoom="3.2976879"
     inkscape:cx="135.09465"
     inkscape:cy="37.147239"
     inkscape:window-width="1366"
     inkscape:window-height="745"
     inkscape:window-x="-8"
     inkscape:window-y="-8"
     inkscape:window-maximized="1"
     inkscape:current-layer="svg882" />
  <path
     d="M 34.1422,5.85781 C 30.3647,2.08031 25.3422,0 20,0 14.6578,0 9.63531,2.08031 5.85781,5.85781 2.08031,9.63531 0,14.6578 0,20 0,25.3422 2.08039,30.3646 5.85781,34.1422 9.63523,37.9198 14.6578,40 20,40 25.3422,40 30.3647,37.9197 34.1422,34.1422 37.9197,30.3647 40,25.3422 40,20 40,14.6578 37.9196,9.63539 34.1422,5.85781 Z"
     fill="#33cc95"
     id="path869" />
  <g
     clip-path="url(#clip0)"
     id="g875">
    <path
       d="M 20.5714,8 V 33.1429"
       stroke="#ffffff"
       stroke-width="2"
       stroke-linecap="round"
       stroke-linejoin="round"
       id="path871" />
    <path
       d="m 26.2857,12.5714 h -8.5714 c -1.0609,0 -2.0783,0.4215 -2.8284,1.1716 -0.7502,0.7501 -1.1716,1.7676 -1.1716,2.8284 0,1.0609 0.4214,2.0783 1.1716,2.8285 0.7501,0.7501 1.7675,1.1715 2.8284,1.1715 h 5.7143 c 1.0608,0 2.0783,0.4215 2.8284,1.1716 0.7502,0.7502 1.1716,1.7676 1.1716,2.8284 0,1.0609 -0.4214,2.0783 -1.1716,2.8285 -0.7501,0.7501 -1.7676,1.1715 -2.8284,1.1715 h -9.7143"
       stroke="#ffffff"
       stroke-width="2"
       stroke-linecap="round"
       stroke-linejoin="round"
       id="path873" />
  </g>
  <defs
     id="defs880">
    <clipPath
       id="clip0">
      <rect
         width="27.4286"
         height="27.4286"
         fill="#ffffff"
         transform="translate(6.85715,6.85714)"
         id="rect877"
         x="0"
         y="0" />
    </clipPath>
  </defs>
</svg>
