<?xml version="1.0" encoding="UTF-8" standalone="no"?>
<svg
   width="181.40164"
   height="40"
   viewBox="0 0 181.40164 40"
   fill="none"
   version="1.1"
   id="svg29"
   sodipodi:docname="logo.svg"
   inkscape:version="1.1.1 (3bf5ae0d25, 2021-09-20)"
   xmlns:inkscape="http://www.inkscape.org/namespaces/inkscape"
   xmlns:sodipodi="http://sodipodi.sourceforge.net/DTD/sodipodi-0.dtd"
   xmlns="http://www.w3.org/2000/svg"
   xmlns:svg="http://www.w3.org/2000/svg">
  <sodipodi:namedview
     id="namedview31"
     pagecolor="#505050"
     bordercolor="#eeeeee"
     borderopacity="1"
     inkscape:pageshadow="0"
     inkscape:pageopacity="0"
     inkscape:pagecheckerboard="0"
     showgrid="false"
     fit-margin-top="0"
     fit-margin-left="0"
     fit-margin-right="0"
     fit-margin-bottom="0"
     inkscape:zoom="1.666185"
     inkscape:cx="125.43625"
     inkscape:cy="-37.510841"
     inkscape:window-width="1366"
     inkscape:window-height="745"
     inkscape:window-x="-8"
     inkscape:window-y="-8"
     inkscape:window-maximized="1"
     inkscape:current-layer="svg29" />
  <path
     d="m 114.06064,14.512 c 1.632,0 2.944,0.504 3.936,1.512 1.008,0.992 1.512,2.384 1.512,4.176 V 28 h -3.36 v -7.344 c 0,-1.04 -0.264,-1.832 -0.792,-2.376 -0.528,-0.56 -1.248,-0.84 -2.16,-0.84 -0.912,0 -1.64,0.28 -2.184,0.84 -0.528,0.544 -0.792,1.336 -0.792,2.376 V 28 h -3.3599 v -7.344 c 0,-1.04 -0.264,-1.832 -0.792,-2.376 -0.528,-0.56 -1.248,-0.84 -2.16,-0.84 -0.928,0 -1.664,0.28 -2.208,0.84 -0.528,0.544 -0.792,1.336 -0.792,2.376 V 28 h -3.36 V 14.704 h 3.36 v 1.608 c 0.432,-0.56 0.984,-1 1.656,-1.32 0.688,-0.32 1.44,-0.48 2.256,-0.48 1.04,0 1.968,0.224 2.784,0.672 0.816,0.432 1.4479,1.056 1.8959,1.872 0.432,-0.768 1.056,-1.384 1.872,-1.848 0.832,-0.464 1.728,-0.696 2.688,-0.696 z"
     fill="#ffffff"
     id="path6" />
  <path
     d="m 128.60064,28.216 c -1.28,0 -2.432,-0.28 -3.456,-0.84 -1.024,-0.576 -1.832,-1.384 -2.424,-2.424 -0.576,-1.04 -0.864,-2.24 -0.864,-3.6 0,-1.36 0.296,-2.56 0.888,-3.6 0.608,-1.04 1.432,-1.84 2.472,-2.4 1.04,-0.576 2.2,-0.864 3.48,-0.864 1.28,0 2.44,0.288 3.48,0.864 1.04,0.56 1.856,1.36 2.448,2.4 0.608,1.04 0.912,2.24 0.912,3.6 0,1.36 -0.312,2.56 -0.936,3.6 -0.608,1.04 -1.44,1.848 -2.496,2.424 -1.04,0.56 -2.208,0.84 -3.504,0.84 z m 0,-2.928 c 0.608,0 1.176,-0.144 1.704,-0.432 0.544,-0.304 0.976,-0.752 1.296,-1.344 0.32,-0.592 0.48,-1.312 0.48,-2.16 0,-1.264 -0.336,-2.232 -1.008,-2.904 -0.656,-0.688 -1.464,-1.032 -2.424,-1.032 -0.96,0 -1.768,0.344 -2.424,1.032 -0.64,0.672 -0.96,1.64 -0.96,2.904 0,1.264 0.312,2.24 0.936,2.928 0.64,0.672 1.44,1.008 2.4,1.008 z"
     fill="#ffffff"
     id="path8" />
  <path
     d="m 145.36964,14.512 c 1.584,0 2.864,0.504 3.84,1.512 0.976,0.992 1.464,2.384 1.464,4.176 V 28 h -3.36 v -7.344 c 0,-1.056 -0.264,-1.864 -0.792,-2.424 -0.528,-0.576 -1.248,-0.864 -2.16,-0.864 -0.928,0 -1.664,0.288 -2.208,0.864 -0.528,0.56 -0.792,1.368 -0.792,2.424 V 28 h -3.36 V 14.704 h 3.36 v 1.656 c 0.448,-0.576 1.016,-1.024 1.704,-1.344 0.704,-0.336 1.472,-0.504 2.304,-0.504 z"
     fill="#ffffff"
     id="path10" />
  <path
     d="m 166.22864,21.064 c 0,0.48 -0.032,0.912 -0.096,1.296 h -9.72 c 0.08,0.96 0.416,1.712 1.008,2.256 0.592,0.544 1.32,0.816 2.184,0.816 1.248,0 2.136,-0.536 2.664,-1.608 h 3.624 c -0.384,1.28 -1.12,2.336 -2.208,3.168 -1.088,0.816 -2.424,1.224 -4.008,1.224 -1.28,0 -2.432,-0.28 -3.456,-0.84 -1.008,-0.576 -1.8,-1.384 -2.376,-2.424 -0.56,-1.04 -0.84,-2.24 -0.84,-3.6 0,-1.376 0.28,-2.584 0.84,-3.624 0.56,-1.04 1.344,-1.84 2.352,-2.4 1.008,-0.56 2.168,-0.84 3.48,-0.84 1.264,0 2.392,0.272 3.384,0.816 1.008,0.544 1.784,1.32 2.328,2.328 0.56,0.992 0.84,2.136 0.84,3.432 z m -3.48,-0.96 c -0.016,-0.864 -0.328,-1.552 -0.936,-2.064 -0.608,-0.528 -1.352,-0.792 -2.232,-0.792 -0.832,0 -1.536,0.256 -2.112,0.768 -0.56,0.496 -0.904,1.192 -1.032,2.088 z"
     fill="#ffffff"
     id="path12" />
  <path
     d="m 181.40164,14.704 -8.232,19.584 h -3.576 l 2.88,-6.624 -5.328,-12.96 h 3.768 l 3.432,9.288 3.48,-9.288 z"
     fill="#ffffff"
     id="path14" />
  <path
     d="M 34.1422,5.85781 C 30.3647,2.08031 25.3422,0 20,0 14.6578,0 9.63531,2.08031 5.85781,5.85781 2.08031,9.63531 0,14.6578 0,20 0,25.3422 2.08039,30.3646 5.85781,34.1422 9.63523,37.9198 14.6578,40 20,40 25.3422,40 30.3647,37.9197 34.1422,34.1422 37.9197,30.3647 40,25.3422 40,20 40,14.6578 37.9196,9.63539 34.1422,5.85781 Z"
     fill="#33cc95"
     id="path16" />
  <g
     clip-path="url(#clip0)"
     id="g22">
    <path
       d="M 20.5714,8 V 33.1429"
       stroke="#ffffff"
       stroke-width="2"
       stroke-linecap="round"
       stroke-linejoin="round"
       id="path18" />
    <path
       d="m 26.2857,12.5714 h -8.5714 c -1.0609,0 -2.0783,0.4215 -2.8284,1.1716 -0.7502,0.7501 -1.1716,1.7676 -1.1716,2.8284 0,1.0609 0.4214,2.0783 1.1716,2.8285 0.7501,0.7501 1.7675,1.1715 2.8284,1.1715 h 5.7143 c 1.0608,0 2.0783,0.4215 2.8284,1.1716 0.7502,0.7502 1.1716,1.7676 1.1716,2.8284 0,1.0609 -0.4214,2.0783 -1.1716,2.8285 -0.7501,0.7501 -1.7676,1.1715 -2.8284,1.1715 h -9.7143"
       stroke="#ffffff"
       stroke-width="2"
       stroke-linecap="round"
       stroke-linejoin="round"
       id="path20" />
  </g>
  <defs
     id="defs27">
    <clipPath
       id="clip0">
      <rect
         width="27.4286"
         height="27.4286"
         fill="#ffffff"
         transform="translate(6.85715,6.85714)"
         id="rect24"
         x="0"
         y="0" />
    </clipPath>
  </defs>
  <path
     d="m 68.668489,14.512 c 1.632,0 2.944,0.504 3.936,1.512 1.008,0.992 1.512,2.384 1.512,4.176 V 28 h -3.36 v -7.344 c 0,-1.04 -0.264,-1.832 -0.792,-2.376 -0.528,-0.56 -1.248,-0.84 -2.16,-0.84 -0.912,0 -1.64,0.28 -2.184,0.84 -0.528,0.544 -0.792,1.336 -0.792,2.376 V 28 h -3.3599 v -7.344 c 0,-1.04 -0.264,-1.832 -0.792,-2.376 -0.528,-0.56 -1.248,-0.84 -2.16,-0.84 -0.928,0 -1.664,0.28 -2.208,0.84 -0.528,0.544 -0.792,1.336 -0.792,2.376 V 28 h -3.36 V 14.704 h 3.36 v 1.608 c 0.432,-0.56 0.984,-1 1.656,-1.32 0.688,-0.32 1.44,-0.48 2.256,-0.48 1.04,0 1.968,0.224 2.784,0.672 0.816,0.432 1.4479,1.056 1.8959,1.872 0.432,-0.768 1.056,-1.384 1.872,-1.848 0.832,-0.464 1.728,-0.696 2.688,-0.696 z"
     fill="#ffffff"
     id="path937" />
  <path
     d="m 88.194883,14.704 -8.232,19.584 h -3.576 l 2.88,-6.624 -5.328,-12.96 h 3.768 l 3.432,9.288 3.48,-9.288 z"
     fill="#ffffff"
     id="path939" />
</svg>
